# AST/ASF file generated using VICON BodyLanguage
# -----------------------------------------------
:version 1.10
:name VICON
:units
  mass 1.0
  length 0.45
  angle deg
:documentation
   .ast/.asf automatically generated from VICON data using
   VICON BodyBuilder and BodyLanguage model FoxedUp or BRILLIANT.MOD
:root
   order TX TY TZ RX RY RZ
   axis XYZ
   position 0 0 0  
   orientation 0 0 0 
:bonedata
  begin
     id 1 
     name lhipjoint
     direction 0.653368 -0.678499 0.335782 
     length 2.51848 
     axis 0 0 0  XYZ
  end
  begin
     id 2 
     name lfemur
     direction 0.34202 -0.939693 0  
     length 6.57749  
     axis 0 0 20  XYZ
    dof rx ry rz
    limits (-160.0 20.0)
           (-70.0 70.0)
           (-60.0 70.0)
  end
  begin
     id 3 
     name ltibia
     direction 0.34202 -0.939693 0   
     length 7.94618   
     axis 0 0 20   XYZ
    dof rx
    limits (-10.0 170.0)
  end
  begin
     id 4 
     name lfoot
     direction 0.0811271 -0.222895 0.971461   
     length 2.31339   
     axis -90 7.62852e-016 20   XYZ
    dof rx rz
    limits (-45.0 90.0)
           (-70.0 20.0)
  end
  begin
     id 5 
     name ltoes
     direction 1.53568e-011 -4.21885e-011 1   
     length 1.15935   
     axis -90 7.62852e-016 20   XYZ
    dof rx
    limits (-90.0 20.0)
  end
  begin
     id 6 
     name rhipjoint
     direction -0.640058 -0.688614 0.340788   
     length 2.48149  
     axis 0 0 0  XYZ 
  end
  begin
     id 7 
     name rfemur
     direction -0.34202 -0.939693 0   
     length 6.57875   
     axis 0 0 -20   XYZ
    dof rx ry rz
    limits (-160.0 20.0)
           (-70.0 70.0)
           (-70.0 60.0)
  end
  begin
     id 8 
     name rtibia
     direction -0.34202 -0.939693 0   
     length 7.977   
     axis 0 0 -20   XYZ
    dof rx
    limits (-10.0 170.0)
 end
 begin
     id 9 
     name rfoot
     direction -0.0979793 -0.269196 0.958089   
     length 2.19857  
     axis -90 -7.62852e-016 -20   XYZ
    dof rx rz
    limits (-45.0 90.0)
           (-20.0 70.0)
  end
  begin
     id 10 
     name rtoes
     direction -1.53556e-011 -4.21868e-011 1   
     length 1.09838   
     axis -90 -7.62852e-016 -20   XYZ
    dof rx
    limits (-90.0 20.0)
  end
  begin
     id 11 
     name lowerback
     direction 0.0149039 0.998517 -0.0523597   
     length 2.10809   
     axis 0 0 0   XYZ
    dof rx ry rz
    limits (-20.0 45.0)
           (-30.0 30.0)
           (-30.0 30.0)
  end
  begin
     id 12 
     name upperback
     direction -0.00882659 0.999418 -0.0329624   
     length 2.1102   
     axis 0 0 0   XYZ
    dof rx ry rz
    limits (-20.0 45.0)
           (-30.0 30.0)
           (-30.0 30.0)
  end
  begin
     id 13 
     name thorax
     direction -0.0165585 0.999826 -0.0085833   
     length 2.11039   
     axis 0 0 0   XYZ
    dof rx ry rz
    limits (-20.0 45.0)
           (-30.0 30.0)
           (-30.0 30.0)
  end
  begin
     id 14 
     name lowerneck
     direction -0.0130877 0.999911 0.00260353   
     length 1.73253   
     axis 0 0 0   XYZ
    dof rx ry rz
    limits (-20.0 45.0)
           (-30.0 30.0)
           (-30.0 30.0)
  end
  begin
     id 15 
     name upperneck
     direction -0.0348454 0.928205 -0.370435   
     length 1.66692   
     axis 0 0 0   XYZ
    dof rx ry rz
    limits (-20.0 45.0)
           (-30.0 30.0)
           (-30.0 30.0)
  end
  begin
     id 16
     name head
     direction -0.00807754 0.992494 -0.122026  
     length 1.72765  
     axis 0 0 0   XYZ
    dof rx ry rz
    limits (-20.0 45.0)
           (-30.0 30.0)
           (-30.0 30.0)
  end
  begin
     id 17 
     name lclavicle
     direction 0.987582 0.144023 0.0627671  
     length 3.49235  
     axis 0 0 0   XYZ
    dof ry rz
    limits (-20.0 10.0)
           (0.0 20.0)
  end
  begin
     id 18 
     name lhumerus
     direction 1 -4.48958e-011 -1.45183e-018   
     length 5.41917   
     axis 180 -30 -90   XYZ
    dof rx ry rz
    limits (-60.0 90.0)
           (-90.0 90.0)
           (-90.0 90.0)
  end
  begin
     id 19
     name lradius
     direction 1 -4.48999e-011 5.75106e-027   
     length 2.44373   
     axis 180 -30 -90   XYZ
    dof rx
    limits (-10.0 170.0)
  end
  begin
     id 20
     name lwrist
     direction 1 -4.48987e-011 1.53461e-026   
     length 1.22186   
     axis -1.09697e-014 90 90   XYZ
    dof ry
    limits (-180.0 0.0)
 end
  begin
     id 21 
     name lhand
     direction 1 -4.48881e-011 3.06923e-026   
     length 0.727502   
     axis -1.95843e-014 90 90   XYZ
    dof rx rz
    limits (-90.0 90.0)
           (-45.0 45.0)
  end
  begin
     id 22 
     name lfingers
     direction 1 -4.48907e-011 6.13845e-026   
     length 0.586531   
     axis -3.91686e-014 90 90   XYZ
    dof rx
    limits (0.0 90.0)
  end
  begin
     id 23
     name lthumb
     direction 0.707107 -6.3487e-011 0.707107   
     length 0.842145   
     axis -90 45 2.85299e-015   XYZ
    dof rx rz
    limits (-45.0 45.0)
           (-45.0 45.0)
  end
  begin
     id 24 
     name rclavicle
     direction -0.980998 0.169556 0.0943023   
     length 3.29272  
     axis 0 0 0   XYZ 
    dof ry rz
    limits (-10.0 20.0)
           (-20.0 0.0)
  end
  begin
     id 25 
     name rhumerus
     direction -1 -1.83355e-005 2.45537e-005  
     length 5.58976   
     axis 180 30 90   XYZ
    dof rx ry rz
    limits (-90.0 60.0)
           (-90.0 90.0)
           (-90.0 90.0)
  end
  begin
     id 26 
     name rradius
     direction -1 -4.48967e-011 5.97228e-027   
     length 2.4806   
     axis 180 30 90   XYZ
    dof rx
    limits (-10.0 170.0)
  end
  begin
     id 27 
     name rwrist
     direction -1 -4.48963e-011 1.53461e-026   
     length 1.2403   
     axis -1.09697e-014 -90 -90   XYZ
    dof ry
    limits (-180.0 0.0)
  end
  begin
     id 28
     name rhand
     direction -1 -4.48881e-011 3.06923e-026   
     length 0.816009   
     axis -1.95843e-014 -90 -90   XYZ
    dof rx rz
    limits (-90.0 90.0)
           (-45.0 45.0)
  end
  begin
     id 29
     name rfingers
     direction -1 -4.49018e-011 6.13845e-026   
     length 0.657887   
     axis -3.91686e-014 -90 -90   XYZ
    dof rx
    limits (0.0 90.0)
  end
  begin
     id 30
     name rthumb
     direction -0.707107 -6.34872e-011 0.707107   
     length 0.944599   
     axis -90 -45 -2.85299e-015   XYZ
    dof rx rz
    limits (-45.0 45.0)
           (-45.0 45.0)
  end
:hierarchy
  begin
    root lhipjoint rhipjoint lowerback
    lhipjoint lfemur
    lfemur ltibia
    ltibia lfoot
    lfoot ltoes
    rhipjoint rfemur
    rfemur rtibia
    rtibia rfoot
    rfoot rtoes
    lowerback upperback
    upperback thorax
    thorax lowerneck lclavicle rclavicle
    lowerneck upperneck
    upperneck head
    lclavicle lhumerus
    lhumerus lradius
    lradius lwrist
    lwrist lhand lthumb
    lhand lfingers
    rclavicle rhumerus
    rhumerus rradius
    rradius rwrist
    rwrist rhand rthumb
    rhand rfingers
  end

#!OML:ASF F:\VICON\USERDATA\INSTALL\rory3\rory3.ASF
:FULLY-SPECIFIED
:DEGREES
150
root 1.31863 16.6363 28.0466 32.6131 9.5121 0.515941
lowerback -16.9929 -3.42333 4.64435
upperback -11.593 -5.09073 3.46835
thorax -3.01492 -2.71563 0.360585
lowerneck -18.3187 -0.795775 -1.62313
upperneck 40.1461 -0.146787 -1.26185
head 18.0687 -0.51324 -0.334547
rclavicle 9.96408e-015 -1.74931e-014
rhumerus -15.2346 -11.7744 -13.7353
rradius 26.7656
rwrist 0.0112473
rhand 14.0876 6.36091
rfingers 7.12502
rthumb 38.9921 -19.1614
lclavicle 9.96408e-015 -1.74931e-014
lhumerus 34.9863 0.989669 15.1091
lradius 47.8756
lwrist -3.56658
lhand 22.2802 12.5171
lfingers 7.12502
lthumb 46.653 35.3346
rfemur -56.0497 3.52743 29.4177
rtibia 40.3986
rfoot -53.4833 -31.8245
rtoes 46.3008
lfemur -12.0439 -3.65475 -24.5917
ltibia 30.0505
lfoot -1.33231 42.7116
ltoes 39.8016
151
root 1.32978 16.6422 28.0343 32.48 9.77771 0.43392
lowerback -16.7629 -3.40111 5.01469
upperback -11.5464 -5.09565 3.46416
thorax -3.12126 -2.74003 0.166405
lowerneck -18.3099 -0.795246 -1.66093
upperneck 40.097 -0.150151 -1.2154
head 18.0379 -0.512811 -0.305897
rclavicle -2.60408e-014 3.18055e-015
rhumerus -15.1043 -11.9166 -13.6901
rradius 26.454
rwrist 0.170397
rhand 13.989 6.92889
rfingers 7.12502
rthumb 38.8992 -18.62
lclavicle -2.60408e-014 3.18055e-015
lhumerus 34.9184 0.861598 14.8934
lradius 47.9096
lwrist -3.38014
lhand 22.1192 12.4791
lfingers 7.12502
lthumb 46.5039 35.3608
rfemur -55.9434 2.56319 30.0717
rtibia 40.3809
rfoot -52.6081 -31.4903
rtoes 46.3513
lfemur -11.9837 -3.67634 -24.4556
ltibia 30.0642
lfoot 3.28302 42.6371
ltoes 35.8444
152
root 1.33189 16.6429 28.0281 32.4581 9.79209 0.43799
lowerback -16.7167 -3.36337 5.08759
upperback -11.5578 -5.05104 3.4424
thorax -3.16575 -2.72316 0.113386
lowerneck -18.1241 -0.799545 -1.73182
upperneck 40.0368 -0.156262 -1.16234
head 17.9537 -0.517374 -0.267658
rclavicle -1.54555e-014 1.90833e-014
rhumerus -15.0763 -11.6701 -13.6429
rradius 26.3185
rwrist 0.13733
rhand 13.9754 7.09612
rfingers 7.12502
rthumb 38.8863 -18.4564
lclavicle -1.54555e-014 1.90833e-014
lhumerus 34.8234 0.605843 14.6401
lradius 47.9859
lwrist -3.12687
lhand 21.9419 12.6118
lfingers 7.12502
lthumb 46.3396 35.5636
rfemur -55.9422 2.57381 30.0419
rtibia 40.3803
rfoot -52.6602 -31.4264
rtoes 46.2713
lfemur -11.988 -3.55948 -24.4877
ltibia 30.067
lfoot 4.14626 42.5731
ltoes 34.8457
153
root 1.32993 16.6424 28.0234 32.5217 9.72755 0.459878
lowerback -16.9624 -3.30114 5.0532
upperback -11.3231 -4.99382 3.3897
thorax -2.78018 -2.68424 0.0528229
lowerneck -18.433 -0.847517 -1.74881
upperneck 39.9651 -0.238597 -1.10425
head 17.9945 -0.543852 -0.255081
rclavicle -3.70982e-014 -2.22639e-014
rhumerus -15.0478 -11.9512 -13.7006
rradius 26.3447
rwrist 0.154006
rhand 14.027 6.97464
rfingers 7.12502
rthumb 38.935 -18.564
lclavicle -3.70982e-014 -2.22639e-014
lhumerus 34.9418 0.709934 14.2922
lradius 48.0537
lwrist -2.82847
lhand 21.8345 12.7866
lfingers 7.12502
lthumb 46.2401 35.7805
rfemur -56.0399 2.84667 29.8454
rtibia 40.3829
rfoot -52.8107 -31.6747
rtoes 45.9739
lfemur -12.0561 -3.41594 -24.562
ltibia 30.0832
lfoot 2.18992 42.7183
ltoes 36.7158
154
root 1.32372 16.6415 28.0217 32.5958 9.64043 0.439629
lowerback -17.2924 -3.22992 4.95743
upperback -10.9614 -4.92874 3.3843
thorax -2.20267 -2.63114 0.0645802
lowerneck -19.1107 -0.914291 -1.77106
upperneck 39.8668 -0.332203 -1.05607
head 18.1184 -0.57696 -0.250742
rclavicle 2.80286e-014 -4.77083e-015
rhumerus -14.9686 -12.7052 -13.7116
rradius 26.3317
rwrist 0.432354
rhand 14.0746 7.02638
rfingers 7.12502
rthumb 38.9798 -18.4994
lclavicle 2.80286e-014 -4.77083e-015
lhumerus 35.15 0.947378 13.857
lradius 48.0861
lwrist -2.42064
lhand 21.7073 12.8554
lfingers 7.12502
lthumb 46.1221 35.8989
rfemur -56.1208 3.27099 29.6303
rtibia 40.3752
rfoot -53.2027 -31.7192
rtoes 46.3662
lfemur -12.1344 -3.22563 -24.5868
ltibia 30.1294
lfoot 0.219974 42.7645
ltoes 38.5447
155
root 1.31748 16.6411 28.0201 32.6686 9.55847 0.513576
lowerback -17.4011 -3.23031 4.79157
upperback -10.8571 -4.91954 3.39892
thorax -2.01496 -2.61314 0.158888
lowerneck -19.3186 -0.925545 -1.75055
upperneck 39.8382 -0.323041 -1.12155
head 18.1572 -0.579485 -0.284184
rclavicle 4.24902e-014 -2.38542e-015
rhumerus -14.8891 -12.7319 -13.6931
rradius 26.3625
rwrist 0.375408
rhand 14.1659 7.2363
rfingers 7.12502
rthumb 39.066 -18.2648
lclavicle 4.24902e-014 -2.38542e-015
lhumerus 35.0742 0.917259 13.5618
lradius 48.1885
lwrist -2.19039
lhand 21.634 13.0416
lfingers 7.12502
lthumb 46.0541 36.1135
rfemur -56.2081 3.79673 29.2223
rtibia 40.4126
rfoot -53.537 -32.0036
rtoes 46.5087
lfemur -12.1758 -3.03998 -24.6868
ltibia 30.1392
lfoot -1.76272 42.6118
ltoes 40.0004
156
root 1.31995 16.6426 28.0108 32.6706 9.65984 0.43625
lowerback -17.231 -3.21324 4.96797
upperback -10.9913 -4.90244 3.4657
thorax -2.25976 -2.61699 0.153501
lowerneck -19.0016 -0.933002 -1.8711
upperneck 39.8453 -0.273841 -1.16982
head 18.078 -0.585118 -0.272975
rclavicle -1.15792e-014 -1.51076e-014
rhumerus -14.8925 -12.007 -13.5974
rradius 26.5369
rwrist 0.0185253
rhand 14.3186 7.028
rfingers 7.12502
rthumb 39.2098 -18.4316
lclavicle -1.15792e-014 -1.51076e-014
lhumerus 34.832 0.56019 13.3547
lradius 48.2555
lwrist -2.06966
lhand 21.6626 13.1055
lfingers 7.12502
lthumb 46.0807 36.1664
rfemur -56.2281 3.80293 29.2781
rtibia 40.4296
rfoot -53.4174 -32.0084
rtoes 46.2422
lfemur -12.2263 -2.8736 -24.5801
ltibia 30.1702
lfoot -2.34769 42.4148
ltoes 40.4244
